<svg width="1280" height="820" viewBox="0 0 1280 820" fill="none" xmlns="http://www.w3.org/2000/svg">
  <rect width="1280" height="820" fill="#F7F4EE"/>
  <text x="56" y="58" fill="#194A3F" font-family="Segoe UI, Microsoft YaHei, sans-serif" font-size="14" font-weight="800">Scheme A</text>
  <text x="56" y="92" fill="#241F1A" font-family="Segoe UI, Microsoft YaHei, sans-serif" font-size="30" font-weight="800">当前结构进化版：顶部品牌 + 横向导航</text>
  <text x="56" y="122" fill="#70685E" font-family="Segoe UI, Microsoft YaHei, sans-serif" font-size="15">默认桌面 / Windows 浏览器视图。iPad 横屏、iPad 竖屏、移动端通过页面内按钮切换。</text>

  <g transform="translate(56 154)">
    <rect width="1168" height="594" rx="10" fill="#FFFDF9" stroke="#BFB6AA"/>
    <rect width="1168" height="62" rx="10" fill="#FFFDF9" stroke="#DED6C9"/>
    <text x="24" y="30" fill="#241F1A" font-family="Segoe UI, Microsoft YaHei, sans-serif" font-size="24" font-weight="900">ECRM</text>
    <text x="24" y="48" fill="#70685E" font-family="Segoe UI, Microsoft YaHei, sans-serif" font-size="12">轻量现场经营工具</text>
    <rect x="210" y="16" width="130" height="30" rx="8" fill="#FFF2DC" stroke="#DDAE73"/>
    <text x="228" y="36" fill="#8A4512" font-family="Segoe UI, Microsoft YaHei, sans-serif" font-size="12" font-weight="800">现场模式已锁定</text>
    <g transform="translate(736 15)">
      <rect width="72" height="32" rx="8" fill="#FFFFFF" stroke="#DED6C9"/>
      <rect x="80" width="72" height="32" rx="8" fill="#FFFFFF" stroke="#DED6C9"/>
      <rect x="160" width="82" height="32" rx="8" fill="#DBE9E4" stroke="#76A093"/>
      <rect x="250" width="72" height="32" rx="8" fill="#FFFFFF" stroke="#DED6C9"/>
      <text x="24" y="21" fill="#70685E" font-family="Segoe UI, Microsoft YaHei, sans-serif" font-size="12" font-weight="800">商品</text>
      <text x="104" y="21" fill="#70685E" font-family="Segoe UI, Microsoft YaHei, sans-serif" font-size="12" font-weight="800">售卖</text>
      <text x="176" y="21" fill="#194A3F" font-family="Segoe UI, Microsoft YaHei, sans-serif" font-size="12" font-weight="800">仪表盘</text>
      <text x="274" y="21" fill="#70685E" font-family="Segoe UI, Microsoft YaHei, sans-serif" font-size="12" font-weight="800">设置</text>
    </g>

    <g transform="translate(24 84)">
      <text x="0" y="31" fill="#241F1A" font-family="Segoe UI, Microsoft YaHei, sans-serif" font-size="28" font-weight="850">仪表盘</text>
      <text x="0" y="55" fill="#70685E" font-family="Segoe UI, Microsoft YaHei, sans-serif" font-size="13">统计范围：近 7 天</text>
      <g transform="translate(706 10)">
        <rect width="68" height="34" rx="8" fill="#FFFFFF" stroke="#DED6C9"/>
        <rect x="78" width="68" height="34" rx="8" fill="#FFFFFF" stroke="#DED6C9"/>
        <rect x="156" width="78" height="34" rx="8" fill="#DBE9E4" stroke="#76A093"/>
        <rect x="244" width="94" height="34" rx="8" fill="#FFFFFF" stroke="#DED6C9"/>
        <rect x="348" width="70" height="34" rx="8" fill="#FFFFFF" stroke="#DED6C9"/>
        <text x="22" y="22" fill="#70685E" font-family="Segoe UI, Microsoft YaHei, sans-serif" font-size="12" font-weight="800">今日</text>
        <text x="100" y="22" fill="#70685E" font-family="Segoe UI, Microsoft YaHei, sans-serif" font-size="12" font-weight="800">昨天</text>
        <text x="174" y="22" fill="#194A3F" font-family="Segoe UI, Microsoft YaHei, sans-serif" font-size="12" font-weight="800">近7天</text>
        <text x="262" y="22" fill="#70685E" font-family="Segoe UI, Microsoft YaHei, sans-serif" font-size="12" font-weight="800">正常销售</text>
        <text x="371" y="22" fill="#70685E" font-family="Segoe UI, Microsoft YaHei, sans-serif" font-size="12" font-weight="800">刷新</text>
      </g>
    </g>

    <g transform="translate(24 170)">
      <rect width="1120" height="104" rx="8" fill="#DBE9E4" stroke="#C9DCD5"/>
      <text x="22" y="38" fill="#194A3F" font-family="Segoe UI, Microsoft YaHei, sans-serif" font-size="18" font-weight="850">经营概览  ?</text>
      <text x="22" y="68" fill="#4C6C63" font-family="Segoe UI, Microsoft YaHei, sans-serif" font-size="13">销售额、退款、实收、订单性质。主导航只负责页面切换，筛选留在页面标题区。</text>
    </g>

    <g transform="translate(24 292)">
      <rect width="360" height="118" rx="8" fill="#FFFFFF" stroke="#DED6C9"/>
      <rect x="380" width="360" height="118" rx="8" fill="#FFFFFF" stroke="#DED6C9"/>
      <rect x="760" width="360" height="118" rx="8" fill="#FFFFFF" stroke="#DED6C9"/>
      <rect y="138" width="360" height="118" rx="8" fill="#FFFFFF" stroke="#DED6C9"/>
      <rect x="380" y="138" width="360" height="118" rx="8" fill="#FFFFFF" stroke="#DED6C9"/>
      <rect x="760" y="138" width="360" height="118" rx="8" fill="#FFFFFF" stroke="#DED6C9"/>
      <text x="22" y="34" fill="#241F1A" font-family="Segoe UI, Microsoft YaHei, sans-serif" font-size="16" font-weight="850">销售表现  ?</text>
      <text x="402" y="34" fill="#241F1A" font-family="Segoe UI, Microsoft YaHei, sans-serif" font-size="16" font-weight="850">活动成本  ?</text>
      <text x="782" y="34" fill="#241F1A" font-family="Segoe UI, Microsoft YaHei, sans-serif" font-size="16" font-weight="850">库存风险  ?</text>
      <text x="22" y="172" fill="#241F1A" font-family="Segoe UI, Microsoft YaHei, sans-serif" font-size="16" font-weight="850">订单异常  ?</text>
      <text x="402" y="172" fill="#241F1A" font-family="Segoe UI, Microsoft YaHei, sans-serif" font-size="16" font-weight="850">页面操作</text>
      <text x="782" y="172" fill="#241F1A" font-family="Segoe UI, Microsoft YaHei, sans-serif" font-size="16" font-weight="850">说明入口</text>
    </g>
  </g>

  <g transform="translate(56 770)">
    <rect width="96" height="28" rx="8" fill="#DBE9E4" stroke="#76A093"/>
    <rect x="106" width="106" height="28" rx="8" fill="#FFFDF9" stroke="#DED6C9"/>
    <rect x="222" width="106" height="28" rx="8" fill="#FFFDF9" stroke="#DED6C9"/>
    <rect x="338" width="92" height="28" rx="8" fill="#FFFDF9" stroke="#DED6C9"/>
    <text x="34" y="19" fill="#194A3F" font-family="Segoe UI, Microsoft YaHei, sans-serif" font-size="12" font-weight="800">桌面</text>
    <text x="124" y="19" fill="#70685E" font-family="Segoe UI, Microsoft YaHei, sans-serif" font-size="12" font-weight="800">iPad 横屏</text>
    <text x="240" y="19" fill="#70685E" font-family="Segoe UI, Microsoft YaHei, sans-serif" font-size="12" font-weight="800">iPad 竖屏</text>
    <text x="362" y="19" fill="#70685E" font-family="Segoe UI, Microsoft YaHei, sans-serif" font-size="12" font-weight="800">移动端</text>
  </g>
</svg>
